<svg xmlns="http://www.w3.org/2000/svg" viewBox="0 0 2287.039 397.26">
  <defs>
    <style>
      .cls-1 {
        fill: #292929;
        stroke: #666;
        stroke-width: 5px;
      }
    </style>
  </defs>
  <path id="logo" class="cls-1" d="M17.158-62.578V-162.5l86.8,49.961Zm97.4-56.017v-99.923l86.3,49.961Zm89.829,56.017-86.3-49.961,86.3-49.961Zm-96.895-155.94V-118.6l-86.8-49.961Zm0,112.035V-6.561l-86.8-49.961ZM238.7-62.073V-162l86.8,49.961Zm97.4-56.017v-99.923l86.3,49.961Zm0,12.112,86.3,49.961L336.1-5.551Zm89.829,43.905-86.3-49.961L425.933-162Zm0,112.539L339.636.5l86.3-49.961ZM329.038-105.979V-5.551l-86.8-50.466Zm131.212,43.4V-162.5l86.8,49.961Zm97.4-56.017v-99.923l86.3,49.961Zm89.829,56.017-86.3-49.961,86.3-49.961Zm-96.895-155.94V-118.6l-86.8-49.961Zm0,112.035V-6.561l-86.8-49.961ZM768.6-112.035,681.8-62.073V-162.5Zm10.6-6.056V-218.518L866-168.556Zm0,12.112L866-56.017,779.2-6.056Zm3.533-6.056,86.8-50.466V-62.073Zm-10.6-6.056-86.8-50.466,86.8-49.961Zm0,12.112V-6.056l-86.8-49.961Zm426.942-62.578-86.3,49.961v-99.923Zm0,112.035-86.3,49.961v-99.923ZM1105.71-118.6l-86.8-49.961,86.8-49.961Zm-86.8,62.073,86.8-49.961V-6.561ZM1274.771-86.3l-41.382,23.719V-162.5l41.382,24.224Zm142.314-82.26-86.3,49.961v-99.923Zm-86.3,162.5V-106.483l86.3,49.961Zm-7.065-212.462V-118.6q-16.654-9.589-26.242-15.14t-17.663-10.093q-8.075-4.542-17.663-10.093t-25.233-14.635Zm96.895,56.017v99.923l-86.3-49.961Zm-1.009,213.976-86.3-49.961,86.3-49.961ZM1323.723-6.056l-86.8-50.466q15.645-9.084,25.233-14.383t17.663-9.841q8.075-4.542,17.663-10.093t26.242-15.14Zm131.212-56.522V-162.5l86.8,49.961Zm97.4-56.017v-99.923l86.3,49.961Zm89.829,56.017-86.3-49.961,86.3-49.961Zm-96.895-155.94V-118.6l-86.8-49.961Zm0,112.035V-6.561l-86.8-49.961Zm134.744-180.668,86.3-49.961v100.427Zm0,224.574,86.3-49.961v99.923Zm0-112.035,86.3-49.961v99.923Zm-3.533-105.979,86.3,49.961-86.3,49.961Zm0,112.035,86.3,49.961-86.3,49.961Zm183.7-9.084-86.8,50.466V-227.6ZM1981.3-112.035l-86.8,49.961V-162.5Zm10.6-6.056V-218.518l86.8,49.961Zm0,12.112,86.8,49.961-86.8,49.961Zm3.533-6.056,86.8-50.466V-62.073Zm-10.6-6.056-86.8-50.466,86.8-49.961Zm0,12.112V-6.056l-86.8-49.961Zm311.88-62.578-86.3,49.961v-99.923Zm0,112.035-86.3,49.961v-99.923ZM2203.345-118.6l-86.8-49.961,86.8-49.961Zm-86.8,62.073,86.8-49.961V-6.561Z" transform="translate(-14.658 341.449)"/>
</svg>
